<svg width="46" height="46" viewBox="0 0 46 46" fill="none" xmlns="http://www.w3.org/2000/svg">
<circle cx="23" cy="23" r="23" fill="url(#paint0_linear_1_2)"/>
<path d="M14.08 14.808C14.08 14.232 14.28 13.768 14.68 13.416C15.096 13.048 15.6 12.864 16.192 12.864C16.768 12.864 17.256 13.048 17.656 13.416C18.072 13.768 18.28 14.232 18.28 14.808C18.28 15.384 18.072 15.856 17.656 16.224C17.256 16.592 16.768 16.776 16.192 16.776C15.6 16.776 15.096 16.592 14.68 16.224C14.28 15.856 14.08 15.384 14.08 14.808ZM12.208 31.848C12.352 32.04 12.52 32.192 12.712 32.304C12.888 32.416 13.088 32.472 13.312 32.472C13.568 32.472 13.784 32.408 13.96 32.28C14.136 32.168 14.264 31.992 14.344 31.752C14.424 31.512 14.464 31.2 14.464 30.816V18.96H17.968V31.728C17.968 32.528 17.808 33.224 17.488 33.816C17.184 34.424 16.72 34.896 16.096 35.232C15.488 35.568 14.72 35.736 13.792 35.736C13.264 35.736 12.808 35.672 12.424 35.544C12.024 35.416 11.696 35.256 11.44 35.064C11.168 34.872 10.936 34.688 10.744 34.512L12.208 31.848ZM19.3711 18.96H23.1631L25.4671 24.624L28.6351 18.12L31.8751 24.624L34.1791 18.96H37.9711L32.2831 30.696L28.6351 24.12L25.0591 30.696L19.3711 18.96Z" fill="white"/>
<defs>
<linearGradient id="paint0_linear_1_2" x1="23" y1="0" x2="23" y2="46" gradientUnits="userSpaceOnUse">
<stop/>
</linearGradient>
</defs>
</svg>
