<svg width="44" height="72" viewBox="0 0 44 72" fill="none" xmlns="http://www.w3.org/2000/svg">
<path d="M20.962 71.998C30.6701 71.998 38.54 64.1473 38.54 54.463C38.54 44.7787 30.6701 36.928 20.962 36.928C11.254 36.928 3.38403 44.7787 3.38403 54.463C3.38403 64.1473 11.254 71.998 20.962 71.998Z" fill="black" fill-opacity="0.05"/>
<path opacity="0.15" d="M42.671 35.6499C39.961 50.5999 28.185 60.8099 16.37 58.4579C4.55499 56.1039 -2.83001 42.0769 -0.120015 27.1269C2.58999 12.1769 14.366 1.96692 26.181 4.32092C37.996 6.67492 45.381 20.6999 42.671 35.6499Z" fill="url(#paint0_radial_228_9)"/>
<path opacity="0.25" d="M20.6901 58.097C16.8901 58.087 13.4991 56.117 11.9221 52.229C13.1521 53.082 15.0381 52.207 14.8211 51.208C12.6381 51.192 10.7241 48.694 10.0381 46.628C9.35205 44.561 9.32505 42.322 8.65805 40.249C7.46005 36.532 4.95005 32.093 0.227051 32.939C1.88605 31.457 3.35305 31.273 5.06405 31.541C4.10805 28.552 5.96305 23.917 8.65705 22.121C6.16505 25.798 9.63105 26.913 9.72405 30.026C12.9131 23.431 16.4521 21.798 17.7261 18.411C19.1031 14.745 18.3041 10.36 15.7261 7.415C16.6861 5.266 19.5391 1.06 21.6471 0C18.4451 3.05 19.5771 7.302 22.1811 7.992C20.9011 9.163 20.5261 11.41 21.5241 12.828C22.5211 14.246 24.6811 14.708 26.1451 13.776C27.6091 12.846 28.0881 10.644 27.0951 9.222C29.7751 10.664 32.1751 12.965 32.5391 15.98C23.6991 22.281 32.589 28.998 35.474 22.82C36.734 25.385 37.2901 28.277 36.6231 31.055C36.0045 33.5836 34.6134 35.8567 32.6431 37.558C32.0121 38.102 30.7351 39.702 30.8941 40.261C31.3391 41.827 34.518 39.734 33.836 38.191C35.033 39.479 32.6121 42.214 30.6361 43.925C29.4401 44.963 28.9061 46.585 27.8921 47.801C25.0721 51.188 26.7291 54.307 29.7981 51.957C28.7931 55.002 25.0361 58.109 20.6901 58.097Z" fill="#1467C1"/>
<path opacity="0.8" d="M13.134 31.043C13.281 29.189 14.325 27.531 15.497 26.088C16.669 24.644 18.009 23.316 18.931 21.702C20.146 19.5552 20.5505 17.0438 20.071 14.624C20.836 16.032 22.491 17.205 24.091 17.343C25.69 17.48 27.34 16.768 28.335 15.511C28.618 15.817 28.838 16.296 29.121 16.602C28.079 17.952 26.897 19.737 26.415 21.372C25.935 23.008 26.048 24.901 27.091 26.252C27.4646 26.7365 27.94 27.1331 28.4836 27.4138C29.0272 27.6945 29.6258 27.8524 30.2371 27.8765C30.8485 27.9005 31.4576 27.7901 32.0216 27.5529C32.5855 27.3158 33.0906 26.9577 33.501 26.504C33.891 28.391 33.899 30.394 33.073 32.136C32.2355 33.8914 30.8546 35.3302 29.135 36.239" fill="url(#paint1_linear_228_9)"/>
<path opacity="0.8" d="M20.6901 58.097C16.8901 58.087 13.4991 56.117 11.9221 52.229C13.1521 53.082 15.0381 52.207 14.8211 51.208C12.6381 51.192 10.7241 48.694 10.0381 46.628C9.35205 44.561 9.32505 42.322 8.65805 40.249C7.46005 36.532 4.95005 32.093 0.227051 32.939C1.88605 31.457 3.35305 31.273 5.06405 31.541C4.10805 28.552 5.96305 23.917 8.65705 22.121C6.16505 25.798 9.63105 26.913 9.72405 30.026C12.9131 23.431 16.4521 21.798 17.7261 18.411C19.1031 14.745 18.3041 10.36 15.7261 7.415C16.6861 5.266 19.5391 1.06 21.6471 0C18.4451 3.05 19.5771 7.302 22.1811 7.992C20.9011 9.163 20.5261 11.41 21.5241 12.828C22.5211 14.246 24.6811 14.708 26.1451 13.776C27.6091 12.846 28.0881 10.644 27.0951 9.222C29.7751 10.664 32.1751 12.965 32.5391 15.98C23.6991 22.281 32.589 28.998 35.474 22.82C36.734 25.385 37.2901 28.277 36.6231 31.055C36.0045 33.5836 34.6134 35.8567 32.6431 37.558C32.0121 38.102 30.7351 39.702 30.8941 40.261C31.3391 41.827 34.518 39.734 33.836 38.191C35.033 39.479 32.6121 42.214 30.6361 43.925C29.4401 44.963 28.9061 46.585 27.8921 47.801C25.0721 51.188 26.7291 54.307 29.7981 51.957C28.7931 55.002 25.0361 58.109 20.6901 58.097Z" fill="url(#paint2_radial_228_9)"/>
<path opacity="0.8" d="M18.6899 51.4359C16.0619 51.1859 13.6599 49.3059 12.7909 46.8189C12.1939 45.1109 12.2839 43.2289 11.7509 41.4999C11.2689 39.9409 10.3039 38.5859 9.35087 37.2609C8.39787 35.9369 7.42887 34.5859 6.93087 33.0329C6.43387 31.4799 6.50487 29.5069 7.48287 28.2019C7.47844 29.1779 7.85758 30.1166 8.53861 30.8158C9.21965 31.515 10.1481 31.9187 11.1239 31.9399C12.8609 39.0119 15.0639 45.1139 18.6899 51.4359Z" fill="url(#paint3_linear_228_9)"/>
<path d="M40.5659 31.0181C39.1829 31.7681 38.3909 33.2951 38.0159 34.8211C37.6399 36.3461 37.5999 37.9351 37.2789 39.4721C36.9579 41.0101 36.2889 42.5721 34.9929 43.4641C36.4989 42.9781 37.7359 41.3601 38.1349 39.8321C38.5339 38.3041 38.4999 36.6991 38.7349 35.1381C38.9679 33.5761 39.2889 31.9511 40.5649 31.0181H40.5659Z" fill="url(#paint4_linear_228_9)"/>
<path d="M8.82288 48.5489C7.44288 47.8939 6.58388 46.4619 6.13888 45.0029C5.69288 43.5429 5.57888 42.0059 5.22888 40.5209C4.87788 39.0359 4.23388 37.5379 3.00488 36.6289C3.70188 37.4289 3.98388 38.5319 4.10788 39.5839C4.23088 40.6359 4.21588 41.7039 4.41288 42.7439C4.88588 45.2479 6.48688 47.5229 8.82288 48.5489Z" fill="url(#paint5_linear_228_9)"/>
<path opacity="0.8" d="M26.3599 53.7831C21.4909 51.6351 17.7669 52.6311 14.8179 53.6651C18.6729 58.0001 24.4749 57.0351 26.3589 53.7831H26.3599Z" fill="url(#paint6_radial_228_9)"/>
<path fill-rule="evenodd" clip-rule="evenodd" d="M11.4171 46.9231L9.99707 50.6031L12.1991 53.6731L13.6371 50.1131L11.4171 46.9231ZM35.3051 33.8911L33.6411 36.1811L34.5981 38.7121L36.2531 36.5101L35.3051 33.8911Z" stroke="#1467C1" stroke-width="2.079"/>
<path fill-rule="evenodd" clip-rule="evenodd" d="M16.7941 26.25L10.2671 34.023L20.7521 54.62L31.3191 33.85L24.3871 26.286L16.7941 26.25Z" stroke="#1467C1" stroke-width="2.772"/>
<path d="M16.9381 26.3521L10.4121 34.1251L20.8961 54.7221L31.4641 33.9521L24.5311 26.3881L16.9381 26.3521ZM11.4171 46.9231L9.99707 50.6031L12.1991 53.6731L13.6371 50.1131L11.4171 46.9231ZM35.3051 33.8911L33.6411 36.1811L34.5981 38.7121L36.2531 36.51L35.3051 33.8911Z" fill="#1467C1"/>
<path fill-rule="evenodd" clip-rule="evenodd" d="M16.9379 26.3521L10.4119 34.1251L20.8959 54.7221L31.4639 33.9521L24.5309 26.3881L16.9379 26.3521Z" stroke="#060708" stroke-width="1.926"/>
<path d="M31.4641 33.951L26.5171 31.487M26.5171 31.487L17.0831 31.564M26.5171 31.487L20.8961 54.722L17.0831 31.564M26.5171 31.487L24.5311 26.387M17.0831 31.564L10.4121 34.125M11.4171 46.923L9.99707 50.603L12.1991 53.673L13.6371 50.113L11.4171 46.923Z" stroke="#060708" stroke-width="0.866"/>
<path d="M9.99707 50.604L11.2121 49.864M11.2121 49.864L13.6371 50.113M11.2121 49.864L12.1991 53.672" stroke="#060708" stroke-width="0.693"/>
<path fill-rule="evenodd" clip-rule="evenodd" d="M35.3049 33.8911L33.6409 36.1811L34.5979 38.7121L36.2529 36.5101L35.3049 33.8911Z" stroke="#060708" stroke-width="0.866"/>
<path d="M33.6399 36.18L35.3509 35.791M35.3509 35.791L36.2529 36.511M35.3509 35.791L34.5979 38.712" stroke="#060708" stroke-width="0.693"/>
<path fill-rule="evenodd" clip-rule="evenodd" d="M30.4871 44.313L27.8101 47.056L28.6001 50.633L31.2461 48.005L30.4871 44.313Z" stroke="#1467C1" stroke-width="2.079"/>
<path d="M30.4871 44.313L27.8101 47.056L28.6001 50.633L31.2461 48.005L30.4871 44.313Z" fill="#1467C1"/>
<path fill-rule="evenodd" clip-rule="evenodd" d="M30.4871 44.313L27.8101 47.056L28.6001 50.633L31.2461 48.005L30.4871 44.313Z" stroke="#060708" stroke-width="0.866"/>
<path d="M27.8101 47.0559L30.1781 46.8669M30.1781 46.8669L31.2461 48.0049M30.1781 46.8669L28.6001 50.6329" stroke="#060708" stroke-width="0.693"/>
<path opacity="0.6" d="M26.517 31.4871L20.896 54.7221L31.464 33.9521L26.517 31.4871Z" fill="#060708"/>
<path opacity="0.6" d="M24.531 26.3879L26.517 31.4869L31.464 33.9509L24.531 26.3879Z" fill="#060708"/>
<path opacity="0.4" d="M26.5169 31.4871L17.0829 31.5641L20.8959 54.7221L26.5169 31.4871ZM16.9379 26.3521L17.0829 31.5641L26.5169 31.4871L24.5309 26.3871L16.9379 26.3521ZM12.1989 53.6721L11.2119 49.864L13.6369 50.1131L12.1989 53.6721ZM28.5999 50.6331L30.1779 46.8671L31.2459 48.0051L28.5999 50.6331ZM11.4169 46.9231L11.2119 49.864L13.6369 50.1131L11.4169 46.9231Z" fill="#060708"/>
<path opacity="0.4" d="M30.487 44.313L30.177 46.867L31.246 48.005L30.487 44.313ZM34.598 38.712L35.351 35.792L36.253 36.51L34.598 38.712Z" fill="#060708"/>
<path opacity="0.4" d="M35.3049 33.8911L35.3509 35.7911L36.2529 36.5111L35.3049 33.8911Z" fill="#060708"/>
<defs>
<radialGradient id="paint0_radial_228_9" cx="0" cy="0" r="1" gradientUnits="userSpaceOnUse" gradientTransform="translate(1974.67 3297.29) scale(2885.46 2885.41)">
<stop offset="0.34" stop-color="#1467C1"/>
<stop offset="1" stop-color="#1467C1" stop-opacity="0"/>
</radialGradient>
<linearGradient id="paint1_linear_228_9" x1="1756.22" y1="287.816" x2="636.98" y2="1845.1" gradientUnits="userSpaceOnUse">
<stop stop-color="#1467C1"/>
<stop offset="0.7" stop-color="#1467C1" stop-opacity="0"/>
</linearGradient>
<radialGradient id="paint2_radial_228_9" cx="0" cy="0" r="1" gradientUnits="userSpaceOnUse" gradientTransform="translate(2054.59 2011.33) scale(2764.01 2764.04)">
<stop offset="0.36" stop-color="#1467C1" stop-opacity="0"/>
<stop offset="1" stop-color="#1467C1"/>
</radialGradient>
<linearGradient id="paint3_linear_228_9" x1="408508" y1="750565" x2="513600" y2="738704" gradientUnits="userSpaceOnUse">
<stop stop-color="#1467C1"/>
<stop offset="0.7" stop-color="#1467C1" stop-opacity="0"/>
</linearGradient>
<linearGradient id="paint4_linear_228_9" x1="521651" y1="266539" x2="538406" y2="169272" gradientUnits="userSpaceOnUse">
<stop stop-color="#1467C1"/>
<stop offset="0.7" stop-color="#1467C1" stop-opacity="0"/>
</linearGradient>
<linearGradient id="paint5_linear_228_9" x1="208165" y1="392399" x2="36694.1" y2="373425" gradientUnits="userSpaceOnUse">
<stop stop-color="#1467C1"/>
<stop offset="0.7" stop-color="#1467C1" stop-opacity="0"/>
</linearGradient>
<radialGradient id="paint6_radial_228_9" cx="0" cy="0" r="1" gradientUnits="userSpaceOnUse" gradientTransform="translate(216.135 76.581) scale(161.998 161.977)">
<stop offset="0.7" stop-color="#74459A" stop-opacity="0"/>
<stop offset="1" stop-color="#1467C1"/>
</radialGradient>
</defs>
</svg>
