<svg width="46" height="46" viewBox="0 0 46 46" fill="none" xmlns="http://www.w3.org/2000/svg">
<rect width="46" height="46" fill="url(#paint0_linear_5_2)"/>
<g clip-path="url(#clip0_5_2)">
<path d="M12.9167 23.4583C13.425 23.4583 13.9125 23.2564 14.272 22.897C14.6314 22.5375 14.8333 22.05 14.8333 21.5417V17.7083C14.8333 17.2 15.0353 16.7125 15.3947 16.3531C15.7542 15.9936 16.2417 15.7917 16.75 15.7917C17.2583 15.7917 17.7458 15.9936 18.1053 16.3531C18.4647 16.7125 18.6667 17.2 18.6667 17.7083V30.1667C18.6667 30.675 18.8686 31.1625 19.2281 31.522C19.5875 31.8814 20.075 32.0833 20.5833 32.0833C21.0917 32.0833 21.5792 31.8814 21.9386 31.522C22.2981 31.1625 22.5 30.675 22.5 30.1667V14.8333C22.5 14.325 22.7019 13.8375 23.0614 13.4781C23.4208 13.1186 23.9083 12.9167 24.4167 12.9167C24.925 12.9167 25.4125 13.1186 25.772 13.4781C26.1314 13.8375 26.3333 14.325 26.3333 14.8333V27.2917C26.3333 27.8 26.5353 28.2875 26.8947 28.647C27.2542 29.0064 27.7417 29.2083 28.25 29.2083C28.7583 29.2083 29.2458 29.0064 29.6053 28.647C29.9647 28.2875 30.1667 27.8 30.1667 27.2917V23.4583C30.1667 22.95 30.3686 22.4625 30.7281 22.1031C31.0875 21.7436 31.575 21.5417 32.0833 21.5417" stroke="white" stroke-width="2" stroke-linecap="round" stroke-linejoin="round"/>
</g>
<defs>
<linearGradient id="paint0_linear_5_2" x1="23" y1="0" x2="23" y2="46" gradientUnits="userSpaceOnUse">
<stop stop-color="#42ABF2"/>
<stop offset="1" stop-color="#5786E2"/>
</linearGradient>
<clipPath id="clip0_5_2">
<rect width="23" height="23" fill="white" transform="translate(11 11)"/>
</clipPath>
</defs>
</svg>
